<svg width="140" height="29" fill="none" xmlns="http://www.w3.org/2000/svg"><g clip-path="url(#clip0_406_9265)" fill="#4C5154"><path d="M22.318 7.614a6.94 6.94 0 00-3.83 1.093 6.863 6.863 0 00-2.582 3.012 6.546 6.546 0 00-2.538-3.036 6.62 6.62 0 00-3.836-1.032 6.428 6.428 0 00-2.925.587A6.379 6.379 0 004.27 10.08v-.17a1.785 1.785 0 00-.531-1.48 1.813 1.813 0 00-1.5-.5h-.245a1.787 1.787 0 00-1.49.5A1.759 1.759 0 000 9.91v16.807a1.712 1.712 0 00.503 1.47 1.74 1.74 0 001.491.473h.245a1.787 1.787 0 001.5-.473 1.759 1.759 0 00.531-1.47v-8.064c0-4.967 1.505-7.371 4.613-7.371 2.57 0 3.818 1.664 3.818 5.076v10.359a1.726 1.726 0 00.494 1.477 1.751 1.751 0 001.488.49h.281a1.786 1.786 0 001.52-.474 1.758 1.758 0 00.523-1.493v-7.942c0-5.259 1.395-7.493 4.662-7.493 2.545 0 3.769 1.664 3.769 5.076v10.359a1.725 1.725 0 00.509 1.465 1.753 1.753 0 001.485.478h.245c1.395 0 2.068-.631 2.068-1.943V16.152c0-7.056-4.038-8.501-7.427-8.501m24.434 12.265v.462a5.152 5.152 0 01-1.629 3.706 5.232 5.232 0 01-3.816 1.419c-2.373 0-3.854-1.215-3.854-3.134 0-1.918 1.725-3.388 4.503-3.388 1.648.014 3.278.348 4.796.984v-.049zm5.482 6.424a2.353 2.353 0 01-.969-.974 2.329 2.329 0 01-.255-1.345v-8.027c0-5.477-3.132-8.38-9.054-8.38-4.111 0-7.586 1.968-7.586 4.311.006.489.193.957.524 1.318.332.36.785.587 1.274.638a.801.801 0 00.845-.304 6.514 6.514 0 012.277-1.795 6.564 6.564 0 012.837-.634c3.28 0 4.625 1.215 4.625 4.069v1.141a12.625 12.625 0 00-4.894-.862c-5.25 0-8.65 2.72-8.65 6.934 0 3.959 2.948 6.521 7.512 6.521a8.41 8.41 0 003.434-.698 8.354 8.354 0 002.843-2.034c.112.7.474 1.337 1.02 1.794a2.983 2.983 0 001.953.695c.522 0 1.033-.14 1.481-.405a2.888 2.888 0 001.064-1.1.676.676 0 00-.306-.96M59.05 7.93h-.246a1.774 1.774 0 00-1.48.484 1.748 1.748 0 00-.514 1.46v16.843a1.76 1.76 0 00.51 1.474 1.788 1.788 0 001.484.505h.245a1.8 1.8 0 001.477-.51 1.772 1.772 0 00.505-1.47V9.874a1.737 1.737 0 00-.51-1.454 1.764 1.764 0 00-1.472-.489zM58.927 0a2.72 2.72 0 00-1.508.44 2.688 2.688 0 00-1.007 1.197 2.665 2.665 0 00.565 2.932 2.723 2.723 0 002.946.6 2.7 2.7 0 001.22-.983c.3-.44.46-.959.463-1.49a2.71 2.71 0 00-.79-1.887A2.75 2.75 0 0058.927 0zm43.167 18.289c0 4.372-2.313 7.08-6.044 7.08-3.732 0-6.045-2.708-6.045-7.08s2.325-7.044 6.045-7.044c3.72 0 6.044 2.696 6.044 7.044zM96.05 7.578c-5.164 0-10.4 3.352-10.4 10.747C85.65 25.721 90.873 29 96.036 29c5.164 0 10.413-3.303 10.413-10.675 0-7.371-5.225-10.747-10.4-10.747zm36.523.036a6.938 6.938 0 00-3.822 1.097 6.864 6.864 0 00-2.577 3.008 6.543 6.543 0 00-2.539-3.036 6.62 6.62 0 00-3.836-1.032 6.482 6.482 0 00-2.936.587 6.434 6.434 0 00-2.35 1.842v-.17a1.773 1.773 0 00-.522-1.48 1.806 1.806 0 00-1.497-.5h-.244a1.79 1.79 0 00-1.491.5 1.753 1.753 0 00-.504 1.48v16.807a1.718 1.718 0 00.504 1.47 1.74 1.74 0 001.491.473h.244a1.777 1.777 0 001.497-.473 1.736 1.736 0 00.522-1.47v-8.064c0-4.967 1.517-7.371 4.625-7.371 2.57 0 3.818 1.664 3.818 5.076v10.359a1.734 1.734 0 001.195 1.878c.258.082.531.105.799.065h.282a1.784 1.784 0 001.491-.478c.195-.188.344-.418.436-.672.091-.254.122-.525.091-.793v-7.942c0-5.259 1.395-7.493 4.662-7.493 2.545 0 3.781 1.664 3.781 5.076v10.359a1.725 1.725 0 00.506 1.46 1.753 1.753 0 001.476.483h.245c1.395 0 2.068-.631 2.068-1.943V16.152c0-7.056-4.038-8.501-7.427-8.501M82.174 22.989a1.414 1.414 0 00-.452-.158 1.305 1.305 0 00-.747.097c-.08.039-.153.088-.22.146-.08.075-.153.156-.22.243l-.294.364a4.117 4.117 0 01-.612.607 3.823 3.823 0 01-.966.57 6.03 6.03 0 01-1.322.39 9.622 9.622 0 01-1.737.133c-3.977 0-5.763-3.534-5.763-7.044s1.541-7.08 5.849-7.08a6.297 6.297 0 014.086 1.288l.82.716c.064.056.134.105.208.146a.88.88 0 00.343.11c.218.02.437-.018.636-.11.14-.059.274-.128.404-.206.252-.17.461-.394.611-.656.06-.096.108-.198.147-.304a2.41 2.41 0 00.135-.79c0-1.857-2.741-3.861-7.146-3.861-4.82 0-10.437 2.817-10.437 10.747s5.616 10.675 10.437 10.675c3.573 0 7.427-1.579 7.427-4.141a1.97 1.97 0 00-.49-1.324 2.067 2.067 0 00-.733-.546"/></g><defs><clipPath id="clip0_406_9265"><path fill="#fff" d="M0 0h140v29H0z"/></clipPath></defs></svg>