<svg width="67" height="23" viewBox="0 0 67 23" fill="none" xmlns="http://www.w3.org/2000/svg">
<path d="M14.9828 16.08C13.9268 17.352 8.81623 17.5 6.89623 17.5C3.10423 17.5 0.800232 15.052 0.800232 11.5C0.800232 7.972 3.12823 5.524 6.89623 5.524C8.72023 5.524 13.9748 6.72 15.0308 7.992L9.63223 9.484C8.86423 8.644 8.02423 8.308 6.89623 8.308C5.28823 8.308 3.89623 9.604 3.89623 11.5C3.89623 13.564 5.19223 14.716 6.89623 14.716C7.90423 14.716 9.05623 14.332 9.68023 13.54L14.9828 16.08Z" fill="white"/>
<path d="M29.6037 6.312L22.6197 22.872H19.1877L21.4197 17.712L16.5957 6.312H20.0037L22.4037 12.408L23.0997 14.592L23.7717 12.408L26.1717 6.312H29.6037Z" fill="white"/>
<path d="M37.4497 8.856C35.7217 8.856 34.4737 10.176 34.4737 11.976C34.4737 13.752 35.7217 15.072 37.4497 15.072C39.1297 15.072 40.2817 13.824 40.2817 11.976C40.2817 10.104 39.1297 8.856 37.4497 8.856ZM31.4737 17.592V0H34.5217V6.264L34.4737 7.08C34.9777 6.408 36.5137 6.024 37.5697 6.024C41.3377 6.024 43.4497 8.784 43.4497 11.976C43.4497 15.576 41.2897 17.904 37.5697 17.904C36.6577 17.904 35.1937 17.472 34.5937 16.752L34.6177 17.4V17.592H31.4737Z" fill="white"/>
<path d="M56.138 16.152C55.25 17.304 53.21 18 51.458 18C47.642 18 45.506 15.384 45.506 12C45.506 8.544 47.618 6.024 51.338 6.024C55.034 6.024 57.146 8.544 57.146 12C57.146 12.384 57.146 12.624 57.122 12.96H48.626C48.794 14.376 49.85 15.264 51.458 15.264C52.61 15.264 53.69 14.88 54.362 14.136L56.138 16.152ZM48.674 10.896H53.954C53.81 9.624 52.754 8.76 51.338 8.76C49.922 8.76 48.794 9.624 48.674 10.896Z" fill="white"/>
<path d="M65.5518 9.144C64.9278 8.928 64.3758 8.856 63.7278 8.856C63.2958 8.856 62.9358 8.88 62.5998 9.024V17.592H59.5038V6.816C60.4398 6.336 62.0478 6 63.6078 6C64.2798 6 65.4798 6.072 66.1998 6.336L65.5518 9.144Z" fill="white"/>
</svg>
